<mxfile host="app.diagrams.net" modified="2024-05-25T16:55:01.635Z" agent="Mozilla/5.0 (Windows NT 10.0; Win64; x64) AppleWebKit/537.36 (KHTML, like Gecko) Chrome/123.0.0.0 Safari/537.36 OPR/109.0.0.0" etag="u9QmeacNXv4NuKgHGAXU" version="24.4.8" type="google">
  <diagram name="Page-1" id="13e1069c-82ec-6db2-03f1-153e76fe0fe0">
    <mxGraphModel grid="1" page="1" gridSize="10" guides="1" tooltips="1" connect="1" arrows="1" fold="1" pageScale="1" pageWidth="1100" pageHeight="850" background="none" math="0" shadow="0">
      <root>
        <mxCell id="0" />
        <mxCell id="1" parent="0" />
        <mxCell id="rlC4atoU4qss-mgYUhAd-61" value="" style="html=1;points=[];perimeter=orthogonalPerimeter;rounded=0;shadow=0;comic=0;labelBackgroundColor=none;strokeWidth=1;fontFamily=Verdana;fontSize=12;align=center;" vertex="1" parent="1">
          <mxGeometry x="145" y="510" width="10" height="260" as="geometry" />
        </mxCell>
        <mxCell id="7baba1c4bc27f4b0-35" value="&lt;font style=&quot;font-size: 10px;&quot;&gt;&#39;&#39;Produto Indisponível&#39;&#39;&lt;/font&gt;" style="html=1;verticalAlign=bottom;endArrow=block;labelBackgroundColor=none;fontFamily=Verdana;fontSize=12;elbow=vertical;edgeStyle=orthogonalEdgeStyle;curved=1;exitX=1.038;exitY=0.345;exitPerimeter=0;entryX=1.5;entryY=0.667;entryDx=0;entryDy=0;entryPerimeter=0;" edge="1" parent="1" source="7baba1c4bc27f4b0-16" target="7baba1c4bc27f4b0-34">
          <mxGeometry x="0.0178" y="20" relative="1" as="geometry">
            <mxPoint x="465" y="230" as="sourcePoint" />
            <mxPoint x="620" y="320" as="targetPoint" />
            <Array as="points">
              <mxPoint x="600" y="290" />
              <mxPoint x="650" y="290" />
              <mxPoint x="650" y="320" />
            </Array>
            <mxPoint as="offset" />
          </mxGeometry>
        </mxCell>
        <mxCell id="7baba1c4bc27f4b0-2" value="&lt;font style=&quot;font-size: 13px;&quot;&gt;SistemaVendas&lt;/font&gt;" style="shape=umlLifeline;perimeter=lifelinePerimeter;whiteSpace=wrap;html=1;container=1;collapsible=0;recursiveResize=0;outlineConnect=0;rounded=1;shadow=0;comic=0;labelBackgroundColor=none;strokeWidth=1;fontFamily=Verdana;fontSize=12;align=center;" vertex="1" parent="1">
          <mxGeometry x="240" y="80" width="100" height="970" as="geometry" />
        </mxCell>
        <mxCell id="7baba1c4bc27f4b0-10" value="" style="html=1;points=[];perimeter=orthogonalPerimeter;rounded=0;shadow=0;comic=0;labelBackgroundColor=none;strokeWidth=1;fontFamily=Verdana;fontSize=12;align=center;" vertex="1" parent="7baba1c4bc27f4b0-2">
          <mxGeometry x="45" y="100" width="10" height="300" as="geometry" />
        </mxCell>
        <mxCell id="rlC4atoU4qss-mgYUhAd-36" value="&lt;font style=&quot;font-size: 11px;&quot;&gt;Selecionar Pagamento&lt;/font&gt;" style="html=1;verticalAlign=bottom;endArrow=block;entryX=0;entryY=0;labelBackgroundColor=none;fontFamily=Verdana;fontSize=12;edgeStyle=elbowEdgeStyle;elbow=vertical;" edge="1" parent="7baba1c4bc27f4b0-2">
          <mxGeometry relative="1" as="geometry">
            <mxPoint x="-85" y="440" as="sourcePoint" />
            <mxPoint x="45" y="440" as="targetPoint" />
            <mxPoint as="offset" />
          </mxGeometry>
        </mxCell>
        <mxCell id="rlC4atoU4qss-mgYUhAd-39" value="" style="html=1;points=[];perimeter=orthogonalPerimeter;rounded=0;shadow=0;comic=0;labelBackgroundColor=none;strokeWidth=1;fontFamily=Verdana;fontSize=12;align=center;" vertex="1" parent="7baba1c4bc27f4b0-2">
          <mxGeometry x="45" y="430" width="10" height="210" as="geometry" />
        </mxCell>
        <mxCell id="rlC4atoU4qss-mgYUhAd-63" value="" style="curved=1;endArrow=classic;html=1;rounded=0;" edge="1" parent="7baba1c4bc27f4b0-2">
          <mxGeometry width="50" height="50" relative="1" as="geometry">
            <mxPoint x="40" y="620" as="sourcePoint" />
            <mxPoint x="20" y="600" as="targetPoint" />
            <Array as="points">
              <mxPoint x="55" y="610" />
              <mxPoint x="20" y="600" />
            </Array>
          </mxGeometry>
        </mxCell>
        <mxCell id="Qhrrjy1VUKeUHGbcaUbb-81" value="" style="html=1;points=[];perimeter=orthogonalPerimeter;rounded=0;shadow=0;comic=0;labelBackgroundColor=none;strokeWidth=1;fontFamily=Verdana;fontSize=12;align=center;" vertex="1" parent="7baba1c4bc27f4b0-2">
          <mxGeometry x="45" y="750" width="10" height="180" as="geometry" />
        </mxCell>
        <mxCell id="7baba1c4bc27f4b0-3" value="&lt;font style=&quot;font-size: 12px;&quot;&gt;SistemaEstoque&lt;/font&gt;" style="shape=umlLifeline;perimeter=lifelinePerimeter;whiteSpace=wrap;html=1;container=1;collapsible=0;recursiveResize=0;outlineConnect=0;rounded=1;shadow=0;comic=0;labelBackgroundColor=none;strokeWidth=1;fontFamily=Verdana;fontSize=12;align=center;" vertex="1" parent="1">
          <mxGeometry x="400" y="80" width="100" height="970" as="geometry" />
        </mxCell>
        <mxCell id="7baba1c4bc27f4b0-13" value="" style="html=1;points=[];perimeter=orthogonalPerimeter;rounded=0;shadow=0;comic=0;labelBackgroundColor=none;strokeWidth=1;fontFamily=Verdana;fontSize=12;align=center;" vertex="1" parent="7baba1c4bc27f4b0-3">
          <mxGeometry x="45" y="120" width="10" height="280" as="geometry" />
        </mxCell>
        <mxCell id="rlC4atoU4qss-mgYUhAd-38" value="" style="html=1;points=[];perimeter=orthogonalPerimeter;rounded=0;shadow=0;comic=0;labelBackgroundColor=none;strokeWidth=1;fontFamily=Verdana;fontSize=12;align=center;" vertex="1" parent="7baba1c4bc27f4b0-3">
          <mxGeometry x="45" y="430" width="10" height="130" as="geometry" />
        </mxCell>
        <mxCell id="rlC4atoU4qss-mgYUhAd-56" value="" style="curved=1;endArrow=classic;html=1;rounded=0;" edge="1" parent="7baba1c4bc27f4b0-3">
          <mxGeometry width="50" height="50" relative="1" as="geometry">
            <mxPoint x="25" y="480" as="sourcePoint" />
            <mxPoint x="5" y="460" as="targetPoint" />
            <Array as="points">
              <mxPoint x="40" y="470" />
              <mxPoint x="5" y="460" />
            </Array>
          </mxGeometry>
        </mxCell>
        <mxCell id="Qhrrjy1VUKeUHGbcaUbb-11" value="" style="endArrow=none;dashed=1;html=1;rounded=0;fillColor=#f8cecc;strokeColor=#b85450;" edge="1" parent="7baba1c4bc27f4b0-3">
          <mxGeometry width="50" height="50" relative="1" as="geometry">
            <mxPoint x="-420" y="700" as="sourcePoint" />
            <mxPoint x="-400" y="700" as="targetPoint" />
            <Array as="points">
              <mxPoint x="570" y="700" />
            </Array>
          </mxGeometry>
        </mxCell>
        <mxCell id="Qhrrjy1VUKeUHGbcaUbb-80" value="" style="html=1;points=[];perimeter=orthogonalPerimeter;rounded=0;shadow=0;comic=0;labelBackgroundColor=none;strokeWidth=1;fontFamily=Verdana;fontSize=12;align=center;" vertex="1" parent="7baba1c4bc27f4b0-3">
          <mxGeometry x="45" y="750" width="10" height="180" as="geometry" />
        </mxCell>
        <mxCell id="7baba1c4bc27f4b0-4" value="&lt;font style=&quot;font-size: 10px;&quot;&gt;SistemaPagamento&lt;/font&gt;" style="shape=umlLifeline;perimeter=lifelinePerimeter;whiteSpace=wrap;html=1;container=0;collapsible=0;recursiveResize=0;outlineConnect=0;rounded=1;shadow=0;comic=0;labelBackgroundColor=none;strokeWidth=1;fontFamily=Verdana;fontSize=12;align=center;" vertex="1" parent="1">
          <mxGeometry x="511.25" y="80" width="167.5" height="910" as="geometry" />
        </mxCell>
        <mxCell id="7baba1c4bc27f4b0-5" value="BD" style="shape=umlLifeline;perimeter=lifelinePerimeter;whiteSpace=wrap;html=1;container=1;collapsible=0;recursiveResize=0;outlineConnect=0;rounded=1;shadow=0;comic=0;labelBackgroundColor=none;strokeWidth=1;fontFamily=Verdana;fontSize=12;align=center;" vertex="1" parent="1">
          <mxGeometry x="680" y="80" width="100" height="910" as="geometry" />
        </mxCell>
        <mxCell id="rlC4atoU4qss-mgYUhAd-20" value="" style="html=1;points=[];perimeter=orthogonalPerimeter;rounded=0;shadow=0;comic=0;labelBackgroundColor=none;strokeWidth=1;fontFamily=Verdana;fontSize=12;align=center;" vertex="1" parent="7baba1c4bc27f4b0-5">
          <mxGeometry x="45" y="300" width="10" height="60" as="geometry" />
        </mxCell>
        <mxCell id="rlC4atoU4qss-mgYUhAd-28" value="&lt;font style=&quot;font-size: 9px;&quot;&gt;Registrar transação no BD&lt;/font&gt;" style="html=1;verticalAlign=bottom;endArrow=block;entryX=0;entryY=0;labelBackgroundColor=none;fontFamily=Verdana;fontSize=12;edgeStyle=elbowEdgeStyle;elbow=vertical;" edge="1" parent="7baba1c4bc27f4b0-5">
          <mxGeometry relative="1" as="geometry">
            <mxPoint x="-80" y="460" as="sourcePoint" />
            <mxPoint x="45" y="460" as="targetPoint" />
          </mxGeometry>
        </mxCell>
        <mxCell id="rlC4atoU4qss-mgYUhAd-35" value="" style="html=1;points=[];perimeter=orthogonalPerimeter;rounded=0;shadow=0;comic=0;labelBackgroundColor=none;strokeWidth=1;fontFamily=Verdana;fontSize=12;align=center;" vertex="1" parent="7baba1c4bc27f4b0-5">
          <mxGeometry x="45" y="430" width="10" height="190" as="geometry" />
        </mxCell>
        <mxCell id="rlC4atoU4qss-mgYUhAd-41" value="&lt;font style=&quot;font-size: 9px;&quot;&gt;Registrar transação no BD&lt;/font&gt;" style="html=1;verticalAlign=bottom;endArrow=open;dashed=1;endSize=8;labelBackgroundColor=none;fontFamily=Verdana;fontSize=12;edgeStyle=elbowEdgeStyle;elbow=horizontal;" edge="1" parent="7baba1c4bc27f4b0-5">
          <mxGeometry relative="1" as="geometry">
            <mxPoint x="-80" y="610" as="targetPoint" />
            <Array as="points">
              <mxPoint x="-10" y="610" />
              <mxPoint x="20" y="610" />
            </Array>
            <mxPoint x="45" y="610" as="sourcePoint" />
            <mxPoint as="offset" />
          </mxGeometry>
        </mxCell>
        <mxCell id="rlC4atoU4qss-mgYUhAd-59" value="" style="curved=1;endArrow=classic;html=1;rounded=0;" edge="1" parent="7baba1c4bc27f4b0-5">
          <mxGeometry width="50" height="50" relative="1" as="geometry">
            <mxPoint x="40" y="640" as="sourcePoint" />
            <mxPoint x="20" y="620" as="targetPoint" />
            <Array as="points">
              <mxPoint x="55" y="630" />
              <mxPoint x="20" y="620" />
            </Array>
          </mxGeometry>
        </mxCell>
        <mxCell id="rlC4atoU4qss-mgYUhAd-58" value="&lt;span style=&quot;font-size: 9px; text-align: center; text-wrap: nowrap;&quot;&gt;Confirmação de&lt;/span&gt;&lt;div&gt;&lt;span style=&quot;font-size: 9px; text-align: center; text-wrap: nowrap;&quot;&gt;&amp;nbsp;atualização e atualizar&lt;/span&gt;&lt;br&gt;&lt;/div&gt;&lt;div&gt;&lt;span style=&quot;font-size: 9px; text-align: center; text-wrap: nowrap;&quot;&gt;estoque no BD&lt;/span&gt;&lt;/div&gt;" style="shape=note;whiteSpace=wrap;html=1;size=14;verticalAlign=top;align=left;spacingTop=-6;rounded=0;shadow=0;comic=0;labelBackgroundColor=none;strokeWidth=1;fontFamily=Verdana;fontSize=12" vertex="1" parent="7baba1c4bc27f4b0-5">
          <mxGeometry x="-70" y="630" width="110" height="50" as="geometry" />
        </mxCell>
        <mxCell id="rlC4atoU4qss-mgYUhAd-60" value="" style="curved=1;endArrow=classic;html=1;rounded=0;" edge="1" parent="7baba1c4bc27f4b0-5">
          <mxGeometry width="50" height="50" relative="1" as="geometry">
            <mxPoint x="25" y="490" as="sourcePoint" />
            <mxPoint x="5" y="470" as="targetPoint" />
            <Array as="points">
              <mxPoint x="40" y="480" />
              <mxPoint x="5" y="470" />
            </Array>
          </mxGeometry>
        </mxCell>
        <mxCell id="Qhrrjy1VUKeUHGbcaUbb-78" value="" style="html=1;points=[];perimeter=orthogonalPerimeter;rounded=0;shadow=0;comic=0;labelBackgroundColor=none;strokeWidth=1;fontFamily=Verdana;fontSize=12;align=center;" vertex="1" parent="7baba1c4bc27f4b0-5">
          <mxGeometry x="45" y="810" width="10" height="70" as="geometry" />
        </mxCell>
        <mxCell id="Qhrrjy1VUKeUHGbcaUbb-84" value="&lt;font style=&quot;font-size: 9px;&quot;&gt;Registrar transação no BD&lt;/font&gt;" style="html=1;verticalAlign=bottom;endArrow=block;entryX=0;entryY=0;labelBackgroundColor=none;fontFamily=Verdana;fontSize=12;edgeStyle=elbowEdgeStyle;elbow=vertical;exitX=1.017;exitY=0.286;exitDx=0;exitDy=0;exitPerimeter=0;" edge="1" parent="7baba1c4bc27f4b0-5" source="Qhrrjy1VUKeUHGbcaUbb-79">
          <mxGeometry relative="1" as="geometry">
            <mxPoint x="-70" y="830" as="sourcePoint" />
            <mxPoint x="45" y="830.35" as="targetPoint" />
          </mxGeometry>
        </mxCell>
        <mxCell id="7baba1c4bc27f4b0-16" value="" style="html=1;points=[];perimeter=orthogonalPerimeter;rounded=0;shadow=0;comic=0;labelBackgroundColor=none;strokeWidth=1;fontFamily=Verdana;fontSize=12;align=center;" vertex="1" parent="1">
          <mxGeometry x="590" y="220" width="10" height="140" as="geometry" />
        </mxCell>
        <mxCell id="7baba1c4bc27f4b0-17" value="" style="html=1;verticalAlign=bottom;endArrow=block;labelBackgroundColor=none;fontFamily=Verdana;fontSize=12;edgeStyle=elbowEdgeStyle;elbow=vertical;" edge="1" parent="1" source="7baba1c4bc27f4b0-13" target="7baba1c4bc27f4b0-16">
          <mxGeometry relative="1" as="geometry">
            <mxPoint x="510" y="220" as="sourcePoint" />
            <Array as="points">
              <mxPoint x="460" y="220" />
            </Array>
          </mxGeometry>
        </mxCell>
        <mxCell id="7baba1c4bc27f4b0-19" value="" style="html=1;points=[];perimeter=orthogonalPerimeter;rounded=0;shadow=0;comic=0;labelBackgroundColor=none;strokeWidth=1;fontFamily=Verdana;fontSize=12;align=center;" vertex="1" parent="1">
          <mxGeometry x="725" y="230" width="10" height="60" as="geometry" />
        </mxCell>
        <mxCell id="7baba1c4bc27f4b0-20" value="&lt;b style=&quot;font-family: Helvetica;&quot;&gt;&lt;font style=&quot;font-size: 8px;&quot;&gt;VerificarDisponibilidade&lt;/font&gt;&lt;/b&gt;" style="html=1;verticalAlign=bottom;endArrow=block;entryX=0;entryY=0;labelBackgroundColor=none;fontFamily=Verdana;fontSize=12;edgeStyle=elbowEdgeStyle;elbow=vertical;" edge="1" parent="1" source="7baba1c4bc27f4b0-16" target="7baba1c4bc27f4b0-19">
          <mxGeometry relative="1" as="geometry">
            <mxPoint x="650" y="230" as="sourcePoint" />
          </mxGeometry>
        </mxCell>
        <mxCell id="7baba1c4bc27f4b0-21" value="&lt;font style=&quot;font-size: 9px;&quot;&gt;Disponibilidade de produtos&lt;/font&gt;" style="html=1;verticalAlign=bottom;endArrow=open;dashed=1;endSize=8;labelBackgroundColor=none;fontFamily=Verdana;fontSize=12;edgeStyle=elbowEdgeStyle;elbow=vertical;" edge="1" parent="1" source="7baba1c4bc27f4b0-19" target="7baba1c4bc27f4b0-16">
          <mxGeometry relative="1" as="geometry">
            <mxPoint x="650" y="306" as="targetPoint" />
            <Array as="points">
              <mxPoint x="670" y="260" />
              <mxPoint x="700" y="260" />
            </Array>
          </mxGeometry>
        </mxCell>
        <mxCell id="7baba1c4bc27f4b0-11" value="Iniciar Compra" style="html=1;verticalAlign=bottom;endArrow=block;entryX=0;entryY=0;labelBackgroundColor=none;fontFamily=Verdana;fontSize=12;edgeStyle=elbowEdgeStyle;elbow=vertical;" edge="1" parent="1" source="7baba1c4bc27f4b0-9" target="7baba1c4bc27f4b0-10">
          <mxGeometry relative="1" as="geometry">
            <mxPoint x="220" y="190" as="sourcePoint" />
          </mxGeometry>
        </mxCell>
        <mxCell id="7baba1c4bc27f4b0-14" value="Verificar Disponibilidade" style="html=1;verticalAlign=bottom;endArrow=block;entryX=0;entryY=0;labelBackgroundColor=none;fontFamily=Verdana;fontSize=12;edgeStyle=elbowEdgeStyle;elbow=vertical;" edge="1" parent="1" source="7baba1c4bc27f4b0-10" target="7baba1c4bc27f4b0-13">
          <mxGeometry relative="1" as="geometry">
            <mxPoint x="370" y="200" as="sourcePoint" />
          </mxGeometry>
        </mxCell>
        <mxCell id="7baba1c4bc27f4b0-34" value="" style="html=1;points=[];perimeter=orthogonalPerimeter;rounded=0;shadow=0;comic=0;labelBackgroundColor=none;strokeWidth=1;fontFamily=Verdana;fontSize=12;align=center;" vertex="1" parent="1">
          <mxGeometry x="595" y="300" width="10" height="30" as="geometry" />
        </mxCell>
        <mxCell id="7baba1c4bc27f4b0-40" value="Começo" style="shape=note;whiteSpace=wrap;html=1;size=14;verticalAlign=top;align=left;spacingTop=-6;rounded=0;shadow=0;comic=0;labelBackgroundColor=none;strokeWidth=1;fontFamily=Verdana;fontSize=12" vertex="1" parent="1">
          <mxGeometry x="100" y="30" width="100" height="35" as="geometry" />
        </mxCell>
        <mxCell id="7baba1c4bc27f4b0-41" value="aplicacao web" style="shape=note;whiteSpace=wrap;html=1;size=14;verticalAlign=top;align=left;spacingTop=-6;rounded=0;shadow=0;comic=0;labelBackgroundColor=none;strokeWidth=1;fontFamily=Verdana;fontSize=12" vertex="1" parent="1">
          <mxGeometry x="240" y="30" width="100" height="35" as="geometry" />
        </mxCell>
        <mxCell id="7baba1c4bc27f4b0-42" value="webapp" style="shape=note;whiteSpace=wrap;html=1;size=14;verticalAlign=top;align=left;spacingTop=-6;rounded=0;shadow=0;comic=0;labelBackgroundColor=none;strokeWidth=1;fontFamily=Verdana;fontSize=12" vertex="1" parent="1">
          <mxGeometry x="400" y="30" width="100" height="35" as="geometry" />
        </mxCell>
        <mxCell id="7baba1c4bc27f4b0-43" value="app" style="shape=note;whiteSpace=wrap;html=1;size=14;verticalAlign=top;align=left;spacingTop=-6;rounded=0;shadow=0;comic=0;labelBackgroundColor=none;strokeWidth=1;fontFamily=Verdana;fontSize=12" vertex="1" parent="1">
          <mxGeometry x="540" y="30" width="100" height="35" as="geometry" />
        </mxCell>
        <mxCell id="7baba1c4bc27f4b0-44" value="app" style="shape=note;whiteSpace=wrap;html=1;size=14;verticalAlign=top;align=left;spacingTop=-6;rounded=0;shadow=0;comic=0;labelBackgroundColor=none;strokeWidth=1;fontFamily=Verdana;fontSize=12" vertex="1" parent="1">
          <mxGeometry x="680" y="30" width="100" height="35" as="geometry" />
        </mxCell>
        <mxCell id="7baba1c4bc27f4b0-9" value="" style="html=1;points=[];perimeter=orthogonalPerimeter;rounded=0;shadow=0;comic=0;labelBackgroundColor=none;strokeWidth=1;fontFamily=Verdana;fontSize=12;align=center;" vertex="1" parent="1">
          <mxGeometry x="145" y="180" width="10" height="310" as="geometry" />
        </mxCell>
        <mxCell id="AYguMBdWJ010cKUgQGjO-1" value="Usuário" style="shape=umlActor;verticalLabelPosition=bottom;verticalAlign=top;html=1;" vertex="1" parent="1">
          <mxGeometry x="135" y="70" width="30" height="60" as="geometry" />
        </mxCell>
        <mxCell id="AYguMBdWJ010cKUgQGjO-2" value="" style="endArrow=none;dashed=1;html=1;rounded=0;" edge="1" parent="1" source="Qhrrjy1VUKeUHGbcaUbb-82">
          <mxGeometry width="50" height="50" relative="1" as="geometry">
            <mxPoint x="160" y="1050" as="sourcePoint" />
            <mxPoint x="149.5" y="150" as="targetPoint" />
            <Array as="points">
              <mxPoint x="149.5" y="190" />
            </Array>
          </mxGeometry>
        </mxCell>
        <mxCell id="AYguMBdWJ010cKUgQGjO-3" value="Boundary Autenticação" style="shape=umlBoundary;whiteSpace=wrap;html=1;" vertex="1" parent="1">
          <mxGeometry x="145" y="200" width="135" height="40" as="geometry" />
        </mxCell>
        <mxCell id="rlC4atoU4qss-mgYUhAd-1" value="Selecionar Produto" style="html=1;verticalAlign=bottom;endArrow=block;entryX=0;entryY=0;labelBackgroundColor=none;fontFamily=Verdana;fontSize=12;edgeStyle=elbowEdgeStyle;elbow=vertical;" edge="1" parent="1">
          <mxGeometry relative="1" as="geometry">
            <mxPoint x="155" y="200" as="sourcePoint" />
            <mxPoint x="285" y="200" as="targetPoint" />
          </mxGeometry>
        </mxCell>
        <mxCell id="rlC4atoU4qss-mgYUhAd-2" value="&lt;font size=&quot;1&quot; style=&quot;&quot;&gt;&lt;b style=&quot;font-size: 9px;&quot;&gt;Consultar disponibilidade no BD&lt;/b&gt;&lt;/font&gt;" style="text;html=1;align=center;verticalAlign=middle;resizable=0;points=[];autosize=1;strokeColor=none;fillColor=none;" vertex="1" parent="1">
          <mxGeometry x="450" y="190" width="160" height="30" as="geometry" />
        </mxCell>
        <mxCell id="rlC4atoU4qss-mgYUhAd-4" value="Alt" style="shape=umlFrame;whiteSpace=wrap;html=1;pointerEvents=0;" vertex="1" parent="1">
          <mxGeometry x="100" y="240" width="680" height="230" as="geometry" />
        </mxCell>
        <mxCell id="rlC4atoU4qss-mgYUhAd-6" value="&lt;font style=&quot;font-size: 9px;&quot;&gt;Produto Fora de Estoque&lt;/font&gt;" style="html=1;verticalAlign=bottom;endArrow=open;dashed=1;endSize=8;labelBackgroundColor=none;fontFamily=Verdana;fontSize=12;edgeStyle=elbowEdgeStyle;elbow=vertical;" edge="1" parent="1">
          <mxGeometry relative="1" as="geometry">
            <mxPoint x="457.5" y="320" as="targetPoint" />
            <Array as="points">
              <mxPoint x="535" y="320" />
              <mxPoint x="565" y="320" />
            </Array>
            <mxPoint x="590" y="320" as="sourcePoint" />
          </mxGeometry>
        </mxCell>
        <mxCell id="rlC4atoU4qss-mgYUhAd-7" value="&lt;font style=&quot;font-size: 9px;&quot;&gt;Produto Fora de Estoque&lt;/font&gt;" style="html=1;verticalAlign=bottom;endArrow=open;dashed=1;endSize=8;labelBackgroundColor=none;fontFamily=Verdana;fontSize=12;edgeStyle=elbowEdgeStyle;elbow=vertical;entryX=1.5;entryY=0.467;entryDx=0;entryDy=0;entryPerimeter=0;" edge="1" parent="1" target="7baba1c4bc27f4b0-10">
          <mxGeometry relative="1" as="geometry">
            <mxPoint x="310" y="320" as="targetPoint" />
            <Array as="points">
              <mxPoint x="300" y="320" />
              <mxPoint x="413.5" y="321" />
            </Array>
            <mxPoint x="438.5" y="321" as="sourcePoint" />
          </mxGeometry>
        </mxCell>
        <mxCell id="rlC4atoU4qss-mgYUhAd-9" value="&lt;font size=&quot;1&quot; style=&quot;&quot;&gt;&lt;b style=&quot;font-size: 8px;&quot;&gt;[IF Produto Indisponivel]&lt;/b&gt;&lt;/font&gt;" style="text;html=1;align=center;verticalAlign=middle;resizable=0;points=[];autosize=1;strokeColor=none;fillColor=none;" vertex="1" parent="1">
          <mxGeometry x="160" y="250" width="120" height="30" as="geometry" />
        </mxCell>
        <mxCell id="rlC4atoU4qss-mgYUhAd-10" value="&lt;b&gt;&lt;font style=&quot;font-size: 9px;&quot;&gt;[Else]&lt;/font&gt;&lt;/b&gt;" style="text;html=1;align=center;verticalAlign=middle;resizable=0;points=[];autosize=1;strokeColor=none;fillColor=none;" vertex="1" parent="1">
          <mxGeometry x="155" y="350" width="50" height="30" as="geometry" />
        </mxCell>
        <mxCell id="rlC4atoU4qss-mgYUhAd-5" value="[&lt;b&gt;&lt;font style=&quot;font-size: 11px;&quot;&gt;ThrowException&lt;/font&gt;&lt;/b&gt;]" style="text;html=1;align=center;verticalAlign=middle;resizable=0;points=[];autosize=1;strokeColor=none;fillColor=none;" vertex="1" parent="1">
          <mxGeometry x="600" y="258" width="120" height="30" as="geometry" />
        </mxCell>
        <mxCell id="rlC4atoU4qss-mgYUhAd-17" value="&lt;font size=&quot;1&quot;&gt;RedirecionarTelaPrincipal&lt;/font&gt;" style="html=1;verticalAlign=bottom;endArrow=open;dashed=1;endSize=8;labelBackgroundColor=none;fontFamily=Verdana;fontSize=12;edgeStyle=elbowEdgeStyle;elbow=vertical;" edge="1" parent="1">
          <mxGeometry relative="1" as="geometry">
            <mxPoint x="160" y="320" as="targetPoint" />
            <Array as="points" />
            <mxPoint x="283.5" y="321" as="sourcePoint" />
          </mxGeometry>
        </mxCell>
        <mxCell id="rlC4atoU4qss-mgYUhAd-19" value="" style="endArrow=none;dashed=1;html=1;rounded=0;fillColor=#f8cecc;strokeColor=#b85450;" edge="1" parent="1">
          <mxGeometry width="50" height="50" relative="1" as="geometry">
            <mxPoint x="10" y="340" as="sourcePoint" />
            <mxPoint x="10" y="340" as="targetPoint" />
            <Array as="points">
              <mxPoint x="1010" y="340" />
            </Array>
          </mxGeometry>
        </mxCell>
        <mxCell id="rlC4atoU4qss-mgYUhAd-21" value="&lt;b style=&quot;font-family: Helvetica;&quot;&gt;&lt;font style=&quot;font-size: 8px;&quot;&gt;VerificarDisponibilidade&lt;/font&gt;&lt;/b&gt;" style="html=1;verticalAlign=bottom;endArrow=block;entryX=0;entryY=0;labelBackgroundColor=none;fontFamily=Verdana;fontSize=12;edgeStyle=elbowEdgeStyle;elbow=vertical;" edge="1" parent="1">
          <mxGeometry relative="1" as="geometry">
            <mxPoint x="600" y="400" as="sourcePoint" />
            <mxPoint x="725" y="400" as="targetPoint" />
          </mxGeometry>
        </mxCell>
        <mxCell id="rlC4atoU4qss-mgYUhAd-22" value="" style="html=1;points=[];perimeter=orthogonalPerimeter;rounded=0;shadow=0;comic=0;labelBackgroundColor=none;strokeWidth=1;fontFamily=Verdana;fontSize=12;align=center;" vertex="1" parent="1">
          <mxGeometry x="590" y="380" width="10" height="60" as="geometry" />
        </mxCell>
        <mxCell id="rlC4atoU4qss-mgYUhAd-23" value="&lt;font style=&quot;font-size: 9px;&quot;&gt;Disponibilidade Confirmada&lt;/font&gt;" style="html=1;verticalAlign=bottom;endArrow=open;dashed=1;endSize=8;labelBackgroundColor=none;fontFamily=Verdana;fontSize=12;edgeStyle=elbowEdgeStyle;elbow=horizontal;" edge="1" parent="1">
          <mxGeometry relative="1" as="geometry">
            <mxPoint x="600" y="425" as="targetPoint" />
            <Array as="points">
              <mxPoint x="670" y="425" />
              <mxPoint x="700" y="425" />
            </Array>
            <mxPoint x="725" y="425" as="sourcePoint" />
          </mxGeometry>
        </mxCell>
        <mxCell id="rlC4atoU4qss-mgYUhAd-24" value="&lt;font style=&quot;font-size: 9px;&quot;&gt;Disponibilidade Confirmada&lt;/font&gt;" style="html=1;verticalAlign=bottom;endArrow=open;dashed=1;endSize=8;labelBackgroundColor=none;fontFamily=Verdana;fontSize=12;edgeStyle=elbowEdgeStyle;elbow=horizontal;" edge="1" parent="1">
          <mxGeometry relative="1" as="geometry">
            <mxPoint x="460" y="424" as="targetPoint" />
            <Array as="points">
              <mxPoint x="530" y="424" />
              <mxPoint x="560" y="424" />
            </Array>
            <mxPoint x="585" y="424" as="sourcePoint" />
            <mxPoint as="offset" />
          </mxGeometry>
        </mxCell>
        <mxCell id="rlC4atoU4qss-mgYUhAd-25" value="&lt;font style=&quot;font-size: 9px;&quot;&gt;Disponibilidade Confirmada&lt;/font&gt;" style="html=1;verticalAlign=bottom;endArrow=open;dashed=1;endSize=8;labelBackgroundColor=none;fontFamily=Verdana;fontSize=12;edgeStyle=elbowEdgeStyle;elbow=horizontal;" edge="1" parent="1">
          <mxGeometry relative="1" as="geometry">
            <mxPoint x="310" y="425" as="targetPoint" />
            <Array as="points">
              <mxPoint x="380" y="425" />
              <mxPoint x="410" y="425" />
            </Array>
            <mxPoint x="435" y="425" as="sourcePoint" />
            <mxPoint as="offset" />
          </mxGeometry>
        </mxCell>
        <mxCell id="rlC4atoU4qss-mgYUhAd-26" value="&lt;font style=&quot;font-size: 9px;&quot;&gt;Disponibilidade Do Produto&lt;/font&gt;" style="html=1;verticalAlign=bottom;endArrow=open;dashed=1;endSize=8;labelBackgroundColor=none;fontFamily=Verdana;fontSize=12;edgeStyle=elbowEdgeStyle;elbow=horizontal;" edge="1" parent="1">
          <mxGeometry relative="1" as="geometry">
            <mxPoint x="155" y="425" as="targetPoint" />
            <Array as="points">
              <mxPoint x="225" y="425" />
              <mxPoint x="255" y="425" />
            </Array>
            <mxPoint x="280" y="425" as="sourcePoint" />
            <mxPoint as="offset" />
          </mxGeometry>
        </mxCell>
        <mxCell id="rlC4atoU4qss-mgYUhAd-33" value="&lt;font style=&quot;font-size: 9px;&quot;&gt;Resumo Do Pedido&lt;/font&gt;" style="html=1;verticalAlign=bottom;endArrow=open;dashed=1;endSize=8;labelBackgroundColor=none;fontFamily=Verdana;fontSize=12;edgeStyle=elbowEdgeStyle;elbow=horizontal;" edge="1" parent="1">
          <mxGeometry relative="1" as="geometry">
            <mxPoint x="156" y="680" as="targetPoint" />
            <Array as="points">
              <mxPoint x="226" y="680" />
              <mxPoint x="256" y="680" />
            </Array>
            <mxPoint x="281" y="680" as="sourcePoint" />
          </mxGeometry>
        </mxCell>
        <mxCell id="rlC4atoU4qss-mgYUhAd-45" value="Compra Cancelada" style="shape=note;whiteSpace=wrap;html=1;size=14;verticalAlign=top;align=left;spacingTop=-6;rounded=0;shadow=0;comic=0;labelBackgroundColor=none;strokeWidth=1;fontFamily=Verdana;fontSize=12" vertex="1" parent="1">
          <mxGeometry x="470" y="255" width="70" height="35" as="geometry" />
        </mxCell>
        <mxCell id="rlC4atoU4qss-mgYUhAd-46" value="" style="curved=1;endArrow=classic;html=1;rounded=0;" edge="1" parent="1">
          <mxGeometry width="50" height="50" relative="1" as="geometry">
            <mxPoint x="565" y="290" as="sourcePoint" />
            <mxPoint x="545" y="270" as="targetPoint" />
            <Array as="points">
              <mxPoint x="595" y="320" />
              <mxPoint x="545" y="270" />
            </Array>
          </mxGeometry>
        </mxCell>
        <mxCell id="rlC4atoU4qss-mgYUhAd-47" value="&lt;span style=&quot;font-size: 8px; text-align: center; text-wrap: nowrap;&quot;&gt;Enviar detalhes&amp;nbsp;&lt;/span&gt;&lt;div&gt;&lt;span style=&quot;font-size: 8px; text-align: center; text-wrap: nowrap;&quot;&gt;da venda para BD&lt;/span&gt;&lt;/div&gt;" style="shape=note;whiteSpace=wrap;html=1;size=14;verticalAlign=top;align=left;spacingTop=-6;rounded=0;shadow=0;comic=0;labelBackgroundColor=none;strokeWidth=1;fontFamily=Verdana;fontSize=12" vertex="1" parent="1">
          <mxGeometry x="310" y="541" width="100" height="35" as="geometry" />
        </mxCell>
        <mxCell id="rlC4atoU4qss-mgYUhAd-52" value="&lt;font style=&quot;font-size: 9px;&quot;&gt;Processar Pagamento&lt;/font&gt;" style="html=1;verticalAlign=bottom;endArrow=open;dashed=1;endSize=8;labelBackgroundColor=none;fontFamily=Verdana;fontSize=12;edgeStyle=elbowEdgeStyle;elbow=horizontal;" edge="1" parent="1">
          <mxGeometry x="0.4667" relative="1" as="geometry">
            <mxPoint x="440" y="530" as="targetPoint" />
            <Array as="points">
              <mxPoint x="290" y="530" />
              <mxPoint x="370" y="530" />
            </Array>
            <mxPoint x="395" y="530" as="sourcePoint" />
            <mxPoint as="offset" />
          </mxGeometry>
        </mxCell>
        <mxCell id="rlC4atoU4qss-mgYUhAd-62" value="&lt;span style=&quot;font-size: 8px; text-align: center; text-wrap: nowrap;&quot;&gt;Enviar detalhes&amp;nbsp;&lt;/span&gt;&lt;div&gt;&lt;span style=&quot;font-size: 8px; text-align: center; text-wrap: nowrap;&quot;&gt;da venda para o&amp;nbsp;&lt;/span&gt;&lt;/div&gt;&lt;div&gt;&lt;span style=&quot;font-size: 8px; text-align: center; text-wrap: nowrap;&quot;&gt;Usuário,(Recibo, Comprovante&lt;/span&gt;&lt;/div&gt;&lt;div&gt;&lt;span style=&quot;font-size: 8px; text-align: center; text-wrap: nowrap;&quot;&gt;e nota fiscal)&lt;/span&gt;&lt;/div&gt;" style="shape=note;whiteSpace=wrap;html=1;size=14;verticalAlign=top;align=left;spacingTop=-6;rounded=0;shadow=0;comic=0;labelBackgroundColor=none;strokeWidth=1;fontFamily=Verdana;fontSize=12" vertex="1" parent="1">
          <mxGeometry x="156" y="690" width="124" height="70" as="geometry" />
        </mxCell>
        <mxCell id="lsWedem8rZdXQv-DTWqn-3" value="&lt;b&gt;&lt;font style=&quot;font-size: 9px;&quot;&gt;[Else]&lt;/font&gt;&lt;/b&gt;" style="text;html=1;align=center;verticalAlign=middle;resizable=0;points=[];autosize=1;strokeColor=none;fillColor=none;" vertex="1" parent="1">
          <mxGeometry x="160" y="800" width="50" height="30" as="geometry" />
        </mxCell>
        <mxCell id="lsWedem8rZdXQv-DTWqn-4" value="&lt;font size=&quot;1&quot; style=&quot;&quot;&gt;&lt;b style=&quot;font-size: 8px;&quot;&gt;[IF Pagamento Aprovado]&lt;/b&gt;&lt;/font&gt;" style="text;html=1;align=center;verticalAlign=middle;resizable=0;points=[];autosize=1;strokeColor=none;fillColor=none;" vertex="1" parent="1">
          <mxGeometry x="152.5" y="610" width="120" height="30" as="geometry" />
        </mxCell>
        <mxCell id="Qhrrjy1VUKeUHGbcaUbb-83" value="" style="endArrow=none;dashed=1;html=1;rounded=0;" edge="1" parent="1" target="Qhrrjy1VUKeUHGbcaUbb-82">
          <mxGeometry width="50" height="50" relative="1" as="geometry">
            <mxPoint x="151" y="1050" as="sourcePoint" />
            <mxPoint x="149.5" y="150" as="targetPoint" />
            <Array as="points" />
          </mxGeometry>
        </mxCell>
        <mxCell id="Qhrrjy1VUKeUHGbcaUbb-82" value="" style="html=1;points=[];perimeter=orthogonalPerimeter;rounded=0;shadow=0;comic=0;labelBackgroundColor=none;strokeWidth=1;fontFamily=Verdana;fontSize=12;align=center;" vertex="1" parent="1">
          <mxGeometry x="146" y="830" width="10" height="180" as="geometry" />
        </mxCell>
        <mxCell id="Qhrrjy1VUKeUHGbcaUbb-89" value="&lt;font style=&quot;font-size: 9px;&quot;&gt;Resumo Do Pedido&lt;/font&gt;" style="html=1;verticalAlign=bottom;endArrow=open;dashed=1;endSize=8;labelBackgroundColor=none;fontFamily=Verdana;fontSize=12;edgeStyle=elbowEdgeStyle;elbow=vertical;" edge="1" parent="1">
          <mxGeometry relative="1" as="geometry">
            <mxPoint x="157.5" y="940" as="targetPoint" />
            <Array as="points">
              <mxPoint x="227.5" y="940" />
              <mxPoint x="257.5" y="940" />
            </Array>
            <mxPoint x="282.5" y="940" as="sourcePoint" />
          </mxGeometry>
        </mxCell>
        <mxCell id="rlC4atoU4qss-mgYUhAd-53" value="&lt;font style=&quot;font-size: 9px;&quot;&gt;Processar Pagamento&lt;/font&gt;" style="html=1;verticalAlign=bottom;endArrow=open;dashed=1;endSize=8;labelBackgroundColor=none;fontFamily=Verdana;fontSize=12;edgeStyle=elbowEdgeStyle;elbow=horizontal;" edge="1" parent="1">
          <mxGeometry x="0.4667" relative="1" as="geometry">
            <mxPoint x="582.5" y="530" as="targetPoint" />
            <Array as="points">
              <mxPoint x="450" y="530" />
            </Array>
            <mxPoint x="548.75" y="530" as="sourcePoint" />
            <mxPoint as="offset" />
          </mxGeometry>
        </mxCell>
        <mxCell id="rlC4atoU4qss-mgYUhAd-40" value="" style="html=1;points=[];perimeter=orthogonalPerimeter;rounded=0;shadow=0;comic=0;labelBackgroundColor=none;strokeWidth=1;fontFamily=Verdana;fontSize=12;align=center;" vertex="1" parent="1">
          <mxGeometry x="590" y="510" width="10" height="190" as="geometry" />
        </mxCell>
        <mxCell id="rlC4atoU4qss-mgYUhAd-32" value="&lt;font style=&quot;font-size: 9px;&quot;&gt;Compra Realizada&lt;/font&gt;" style="html=1;verticalAlign=bottom;endArrow=open;dashed=1;endSize=8;labelBackgroundColor=none;fontFamily=Verdana;fontSize=12;edgeStyle=elbowEdgeStyle;elbow=horizontal;" edge="1" parent="1">
          <mxGeometry relative="1" as="geometry">
            <mxPoint x="300" y="680" as="targetPoint" />
            <Array as="points">
              <mxPoint x="525" y="680" />
              <mxPoint x="555" y="680" />
            </Array>
            <mxPoint x="580" y="680" as="sourcePoint" />
          </mxGeometry>
        </mxCell>
        <mxCell id="rlC4atoU4qss-mgYUhAd-49" value="&lt;span style=&quot;font-size: 8px; text-align: center; text-wrap: nowrap;&quot;&gt;Aplicação de Desconto,&lt;/span&gt;&lt;div&gt;&lt;span style=&quot;font-size: 8px; text-align: center; text-wrap: nowrap;&quot;&gt;Enviar detalhes&amp;nbsp;&lt;/span&gt;&lt;div&gt;&lt;span style=&quot;font-size: 8px; text-align: center; text-wrap: nowrap;&quot;&gt;da venda para BD e&amp;nbsp;&lt;/span&gt;&lt;/div&gt;&lt;div&gt;&lt;span style=&quot;font-size: 8px; text-align: center; text-wrap: nowrap;&quot;&gt;Atualiza Estoque no BD&lt;/span&gt;&lt;/div&gt;&lt;/div&gt;" style="shape=note;whiteSpace=wrap;html=1;size=14;verticalAlign=top;align=left;spacingTop=-6;rounded=0;shadow=0;comic=0;labelBackgroundColor=none;strokeWidth=1;fontFamily=Verdana;fontSize=12" vertex="1" parent="1">
          <mxGeometry x="463.75" y="550" width="110" height="60" as="geometry" />
        </mxCell>
        <mxCell id="rlC4atoU4qss-mgYUhAd-57" value="" style="curved=1;endArrow=classic;html=1;rounded=0;" edge="1" parent="1">
          <mxGeometry width="50" height="50" relative="1" as="geometry">
            <mxPoint x="570" y="560" as="sourcePoint" />
            <mxPoint x="550" y="540" as="targetPoint" />
            <Array as="points">
              <mxPoint x="585" y="550" />
              <mxPoint x="550" y="540" />
            </Array>
          </mxGeometry>
        </mxCell>
        <mxCell id="Qhrrjy1VUKeUHGbcaUbb-79" value="" style="html=1;points=[];perimeter=orthogonalPerimeter;rounded=0;shadow=0;comic=0;labelBackgroundColor=none;strokeWidth=1;fontFamily=Verdana;fontSize=12;align=center;" vertex="1" parent="1">
          <mxGeometry x="590" y="890" width="10" height="70" as="geometry" />
        </mxCell>
        <mxCell id="Qhrrjy1VUKeUHGbcaUbb-85" value="&lt;font style=&quot;font-size: 9px;&quot;&gt;Registrar transação no BD&lt;/font&gt;" style="html=1;verticalAlign=bottom;endArrow=open;dashed=1;endSize=8;labelBackgroundColor=none;fontFamily=Verdana;fontSize=12;edgeStyle=elbowEdgeStyle;elbow=horizontal;" edge="1" parent="1">
          <mxGeometry relative="1" as="geometry">
            <mxPoint x="600" y="940" as="targetPoint" />
            <Array as="points">
              <mxPoint x="670" y="940" />
              <mxPoint x="700" y="940" />
            </Array>
            <mxPoint x="725" y="940" as="sourcePoint" />
            <mxPoint as="offset" />
          </mxGeometry>
        </mxCell>
        <mxCell id="Qhrrjy1VUKeUHGbcaUbb-87" value="&lt;font style=&quot;font-size: 9px;&quot;&gt;Pagamento Não Aprovado&lt;/font&gt;" style="html=1;verticalAlign=bottom;endArrow=open;dashed=1;endSize=8;labelBackgroundColor=none;fontFamily=Verdana;fontSize=12;edgeStyle=elbowEdgeStyle;elbow=horizontal;" edge="1" parent="1">
          <mxGeometry relative="1" as="geometry">
            <mxPoint x="300" y="940" as="targetPoint" />
            <Array as="points">
              <mxPoint x="525" y="940" />
              <mxPoint x="555" y="940" />
            </Array>
            <mxPoint x="580" y="940" as="sourcePoint" />
          </mxGeometry>
        </mxCell>
        <mxCell id="rlC4atoU4qss-mgYUhAd-50" value="&lt;span style=&quot;font-size: 8px; text-align: center; text-wrap: nowrap;&quot;&gt;Enviar detalhes&amp;nbsp;&lt;/span&gt;&lt;div&gt;&lt;span style=&quot;font-size: 8px; text-align: center; text-wrap: nowrap;&quot;&gt;da venda para BD e&amp;nbsp;&lt;/span&gt;&lt;/div&gt;&lt;div&gt;&lt;span style=&quot;font-size: 8px; text-align: center; text-wrap: nowrap;&quot;&gt;Atualiza Estoque no BD,&amp;nbsp;&lt;/span&gt;&lt;/div&gt;&lt;div&gt;&lt;span style=&quot;font-size: 8px; text-align: center; text-wrap: nowrap;&quot;&gt;aplicação de Desconto&lt;/span&gt;&lt;/div&gt;" style="shape=note;whiteSpace=wrap;html=1;size=14;verticalAlign=top;align=left;spacingTop=-6;rounded=0;shadow=0;comic=0;labelBackgroundColor=none;strokeWidth=1;fontFamily=Verdana;fontSize=12" vertex="1" parent="1">
          <mxGeometry x="610" y="560" width="105" height="60" as="geometry" />
        </mxCell>
        <mxCell id="yUEWD-7QOWikPAVOcuaz-1" value="Alt" style="shape=umlFrame;whiteSpace=wrap;html=1;pointerEvents=0;" vertex="1" parent="1">
          <mxGeometry x="80" y="620" width="680" height="350" as="geometry" />
        </mxCell>
      </root>
    </mxGraphModel>
  </diagram>
</mxfile>
